<svg width="64" height="65" viewBox="0 0 64 65" fill="none" xmlns="http://www.w3.org/2000/svg">
<rect x="0.5" y="1.41382" width="63" height="63" rx="31.5" stroke="#E5E7EB"/>
<path d="M45.3438 40.2576H42.6562C43.0312 40.2576 43.349 40.1274 43.6094 39.8669C43.8698 39.6065 44 39.2888 44 38.9138V28.2576C44 27.1534 43.6094 26.2107 42.8281 25.4294C42.0469 24.6482 41.1042 24.2576 40 24.2576H24C22.8958 24.2576 21.9531 24.6482 21.1719 25.4294C20.3906 26.2107 20 27.1534 20 28.2576V38.9138C20 39.2888 20.1302 39.6065 20.3906 39.8669C20.651 40.1274 20.9688 40.2576 21.3438 40.2576H18.6562C18.3021 40.2576 17.9948 40.3878 17.7344 40.6482C17.474 40.9086 17.3438 41.2159 17.3438 41.5701C17.3438 41.9451 17.474 42.2628 17.7344 42.5232C17.9948 42.7836 18.3021 42.9138 18.6562 42.9138H45.3438C45.6979 42.9138 46.0052 42.7836 46.2656 42.5232C46.526 42.2628 46.6562 41.9451 46.6562 41.5701C46.6562 41.2159 46.526 40.9086 46.2656 40.6482C46.0052 40.3878 45.6979 40.2576 45.3438 40.2576ZM30 25.9138H34C34.1458 25.9138 34.276 25.9347 34.3906 25.9763C34.5052 26.018 34.6146 26.0805 34.7188 26.1638C34.8021 26.2263 34.8698 26.3097 34.9219 26.4138C34.974 26.518 35 26.6326 35 26.7576C35 26.8617 34.974 26.9659 34.9219 27.0701C34.8698 27.1742 34.8021 27.268 34.7188 27.3513C34.6146 27.4138 34.5052 27.4659 34.3906 27.5076C34.276 27.5492 34.1458 27.5701 34 27.5701H30C29.8542 27.5701 29.724 27.5492 29.6094 27.5076C29.4948 27.4659 29.3854 27.4138 29.2812 27.3513C29.1979 27.268 29.1302 27.1742 29.0781 27.0701C29.026 26.9659 29 26.8617 29 26.7576C29 26.6326 29.026 26.518 29.0781 26.4138C29.1302 26.3097 29.1979 26.2263 29.2812 26.1638C29.3854 26.0805 29.4948 26.018 29.6094 25.9763C29.724 25.9347 29.8542 25.9138 30 25.9138Z" fill="#0A1425"/>
</svg>
