<svg width="60" height="61" viewBox="0 0 60 61" fill="none" xmlns="http://www.w3.org/2000/svg">
<rect y="0.57373" width="60" height="60" rx="30" fill="#6E461A"/>
<path d="M34.0938 26.6362V25.0737H32.5625C32 25.0737 31.5156 25.2769 31.1094 25.6831C30.7031 26.0894 30.5 26.5737 30.5 27.1362V35.355C30.5 35.9175 30.7031 36.3966 31.1094 36.7925C31.5156 37.1883 32 37.3862 32.5625 37.3862H34.0938V35.855C34.0938 35.2925 34.2969 34.8081 34.7031 34.4019C35.1094 33.9956 35.5938 33.7925 36.1562 33.7925H41.2812C41.8438 33.7925 42.3281 33.9956 42.7344 34.4019C43.1406 34.8081 43.3438 35.2925 43.3438 35.855V40.98C43.3438 41.5425 43.1406 42.0269 42.7344 42.4331C42.3281 42.8394 41.8438 43.0425 41.2812 43.0425H36.1562C35.5938 43.0425 35.1094 42.8394 34.7031 42.4331C34.2969 42.0269 34.0938 41.5425 34.0938 40.98V39.4487H32.5625C31.4375 39.4487 30.474 39.0477 29.6719 38.2456C28.8698 37.4435 28.4688 36.48 28.4688 35.355V32.2612H24.875V33.2925C24.875 33.855 24.6719 34.3394 24.2656 34.7456C23.8594 35.1519 23.375 35.355 22.8125 35.355H18.7188C18.1562 35.355 17.6719 35.1519 17.2656 34.7456C16.8594 34.3394 16.6562 33.855 16.6562 33.2925V29.1987C16.6562 28.6362 16.8594 28.1519 17.2656 27.7456C17.6719 27.3394 18.1562 27.1362 18.7188 27.1362H22.8125C23.375 27.1362 23.8594 27.3394 24.2656 27.7456C24.6719 28.1519 24.875 28.6362 24.875 29.1987V30.23H28.4688V27.1362C28.4688 26.0112 28.8698 25.0477 29.6719 24.2456C30.474 23.4435 31.4375 23.0425 32.5625 23.0425H34.0938V21.5112C34.0938 20.9279 34.2969 20.4383 34.7031 20.0425C35.1094 19.6466 35.5938 19.4487 36.1562 19.4487H41.2812C41.8438 19.4487 42.3281 19.6466 42.7344 20.0425C43.1406 20.4383 43.3438 20.9279 43.3438 21.5112V26.6362C43.3438 27.1987 43.1406 27.6779 42.7344 28.0737C42.3281 28.4696 41.8438 28.6675 41.2812 28.6675H36.1562C35.5938 28.6675 35.1094 28.4696 34.7031 28.0737C34.2969 27.6779 34.0938 27.1987 34.0938 26.6362Z" fill="white"/>
</svg>
