<svg width="60" height="61" viewBox="0 0 60 61" fill="none" xmlns="http://www.w3.org/2000/svg">
<rect y="0.158691" width="60" height="60" rx="30" fill="#6E461A"/>
<path d="M22.992 19.0707H24.672V41.0547H22.992V19.0707ZM19.128 27.0627H28.608V28.7427H19.128V27.0627ZM22.752 27.9507L23.832 28.4067C23.624 29.2387 23.36 30.1027 23.04 30.9987C22.736 31.8787 22.4 32.7507 22.032 33.6147C21.664 34.4787 21.28 35.2947 20.88 36.0627C20.48 36.8147 20.08 37.4627 19.68 38.0067C19.616 37.8307 19.528 37.6387 19.416 37.4307C19.32 37.2227 19.208 37.0147 19.08 36.8067C18.968 36.5827 18.856 36.3987 18.744 36.2547C19.256 35.6307 19.768 34.8467 20.28 33.9027C20.808 32.9587 21.288 31.9667 21.72 30.9267C22.152 29.8707 22.496 28.8787 22.752 27.9507ZM24.648 29.0547C24.776 29.1987 24.96 29.4307 25.2 29.7507C25.456 30.0707 25.736 30.4307 26.04 30.8307C26.36 31.2307 26.672 31.6307 26.976 32.0307C27.28 32.4307 27.552 32.7987 27.792 33.1347C28.032 33.4547 28.2 33.6947 28.296 33.8547L27.096 35.2707C26.952 34.9507 26.736 34.5427 26.448 34.0467C26.16 33.5347 25.84 33.0067 25.488 32.4627C25.152 31.9027 24.824 31.3827 24.504 30.9027C24.2 30.4227 23.952 30.0547 23.76 29.7987L24.648 29.0547ZM19.296 20.8707L20.616 20.5107C20.856 21.0707 21.064 21.6707 21.24 22.3107C21.432 22.9507 21.6 23.5747 21.744 24.1827C21.888 24.7907 21.984 25.3427 22.032 25.8387L20.592 26.1987C20.576 25.7187 20.496 25.1747 20.352 24.5667C20.224 23.9427 20.064 23.3107 19.872 22.6707C19.696 22.0147 19.504 21.4147 19.296 20.8707ZM27.048 20.4387L28.632 20.8467C28.44 21.4387 28.224 22.0707 27.984 22.7427C27.76 23.3987 27.528 24.0387 27.288 24.6627C27.064 25.2707 26.848 25.8067 26.64 26.2707L25.464 25.8867C25.656 25.4067 25.848 24.8467 26.04 24.2067C26.248 23.5507 26.44 22.8947 26.616 22.2387C26.808 21.5667 26.952 20.9667 27.048 20.4387ZM36.36 18.9987H38.088V41.0547H36.36V18.9987ZM28.56 34.2867L40.896 32.0547L41.184 33.7107L28.872 35.9427L28.56 34.2867ZM30.384 21.9507L31.296 20.7027C31.76 20.9747 32.232 21.2867 32.712 21.6387C33.208 21.9747 33.672 22.3187 34.104 22.6707C34.536 23.0227 34.88 23.3507 35.136 23.6547L34.176 25.0227C33.936 24.7187 33.6 24.3827 33.168 24.0147C32.752 23.6467 32.296 23.2787 31.8 22.9107C31.32 22.5427 30.848 22.2227 30.384 21.9507ZM29.16 27.9987L30 26.7267C30.48 26.9667 30.976 27.2467 31.488 27.5667C32 27.8707 32.488 28.1907 32.952 28.5267C33.416 28.8467 33.784 29.1507 34.056 29.4387L33.168 30.8787C32.88 30.5907 32.512 30.2787 32.064 29.9427C31.616 29.5907 31.136 29.2467 30.624 28.9107C30.128 28.5587 29.64 28.2547 29.16 27.9987Z" fill="white"/>
</svg>
