<svg width="64" height="65" viewBox="0 0 64 65" fill="none" xmlns="http://www.w3.org/2000/svg">
<rect y="0.573608" width="64" height="64" rx="32" fill="#6E461A"/>
<path d="M28.4062 31.7611C28.5729 31.6569 28.7031 31.5267 28.7969 31.3705C28.8906 31.2142 28.9375 31.0424 28.9375 30.8549V21.6361C28.9375 21.3444 28.8333 21.0996 28.625 20.9017C28.4167 20.7038 28.1771 20.6049 27.9062 20.6049C27.8438 20.6049 27.7812 20.6101 27.7188 20.6205C27.6562 20.6309 27.6042 20.6465 27.5625 20.6674C26.25 21.1465 25.0521 21.7924 23.9688 22.6049C22.8854 23.4382 21.9531 24.4017 21.1719 25.4955C20.3906 26.5892 19.7812 27.7924 19.3438 29.1049C18.9062 30.4174 18.6875 31.7924 18.6875 33.2299C18.6875 33.6465 18.7083 34.0684 18.75 34.4955C18.7917 34.9226 18.8438 35.334 18.9062 35.7299V35.6674C18.9271 35.834 18.9896 35.9799 19.0938 36.1049C19.1979 36.2299 19.3229 36.3236 19.4688 36.3861C19.5312 36.4278 19.599 36.459 19.6719 36.4799C19.7448 36.5007 19.8229 36.5111 19.9062 36.5111C20.0104 36.5111 20.1042 36.4955 20.1875 36.4642C20.2708 36.433 20.3542 36.3965 20.4375 36.3549L28.4062 31.7611ZM22.4062 27.3549C22.9479 26.459 23.5938 25.6621 24.3438 24.9642C25.0938 24.2663 25.9167 23.6882 26.8125 23.2299L26.875 23.1986V30.2611L20.75 33.8236C20.75 33.7194 20.7448 33.6153 20.7344 33.5111C20.724 33.4069 20.7188 33.3132 20.7188 33.2299C20.7188 32.1465 20.8698 31.0997 21.1719 30.0892C21.474 29.0788 21.8958 28.1465 22.4375 27.2924L22.4062 27.3549ZM45.3125 33.2299C45.3125 33.2299 45.3125 33.2351 45.3125 33.2455C45.3125 33.2559 45.3125 33.2611 45.3125 33.2611C45.3125 35.0944 44.9688 36.8236 44.2812 38.4486C43.5729 40.0528 42.6198 41.459 41.4219 42.6674C40.224 43.8757 38.8125 44.834 37.1875 45.5424C35.5625 46.2299 33.8333 46.5736 32 46.5736C30.7708 46.5736 29.5938 46.4174 28.4688 46.1049C27.3438 45.7924 26.2917 45.3497 25.3125 44.7767C24.3333 44.2038 23.4375 43.5111 22.625 42.6986C21.8125 41.9069 21.1146 41.0215 20.5312 40.0424L20.5 39.9799L20.4688 39.9174V39.8861C20.4271 39.8028 20.3906 39.7194 20.3594 39.6361C20.3281 39.5528 20.3125 39.4694 20.3125 39.3861C20.3125 39.1986 20.3646 39.0267 20.4688 38.8705C20.5729 38.7142 20.6979 38.584 20.8438 38.4799L30.9688 32.6361V20.9174C30.9688 20.6465 31.0677 20.4121 31.2656 20.2142C31.4635 20.0163 31.7083 19.9174 32 19.9174C33.2083 19.9174 34.3854 20.0736 35.5312 20.3861C36.6562 20.6986 37.7083 21.1413 38.6875 21.7142C39.6667 22.2871 40.5625 22.9694 41.375 23.7611C42.1875 24.5736 42.875 25.4694 43.4375 26.4486L43.5 26.5111L43.5312 26.5736C43.5312 26.5736 43.5365 26.5788 43.5469 26.5892C43.5573 26.5996 43.5625 26.6049 43.5625 26.6049C44.125 27.5632 44.5573 28.5996 44.8594 29.7142C45.1615 30.8288 45.3125 31.9903 45.3125 33.1986C45.3125 33.1986 45.3125 33.2038 45.3125 33.2142C45.3125 33.2247 45.3125 33.2299 45.3125 33.2299Z" fill="white"/>
</svg>
