<svg width="65" height="65" viewBox="0 0 65 65" fill="none" xmlns="http://www.w3.org/2000/svg">
<rect x="0.5" y="0.573608" width="64" height="64" rx="32" fill="#6E461A"/>
<path d="M28 32.3549C28 32.3132 28 32.2663 28 32.2142C28 32.1622 28 32.1049 28 32.0424C28.125 30.834 28.625 29.8132 29.5 28.9799C30.375 28.1465 31.4271 27.709 32.6562 27.6674H32.6875C33.8958 27.709 34.9427 28.1361 35.8281 28.9486C36.7135 29.7611 37.2188 30.7611 37.3438 31.9486V31.9799V32.0111C37.3438 32.0528 37.349 32.1049 37.3594 32.1674C37.3698 32.2299 37.375 32.2924 37.375 32.3549C37.375 32.8132 37.2865 33.2455 37.1094 33.6517C36.9323 34.058 36.6979 34.4069 36.4062 34.6986C35.9688 35.0944 35.4688 35.4122 34.9062 35.6517C34.3438 35.8913 33.7396 36.0111 33.0938 36.0111C33.0729 36.0111 33.0469 36.0111 33.0156 36.0111C32.9844 36.0111 32.9583 36.0111 32.9375 36.0111C32.8958 36.0111 32.8542 36.0111 32.8125 36.0111C32.7708 36.0111 32.7292 36.0007 32.6875 35.9799C32.625 36.0007 32.5625 36.0111 32.5 36.0111C32.4375 36.0111 32.375 36.0111 32.3125 36.0111C31.6667 36.0111 31.0573 35.8965 30.4844 35.6674C29.9115 35.4382 29.3958 35.1153 28.9375 34.6986C28.6458 34.4069 28.4167 34.058 28.25 33.6517C28.0833 33.2455 28 32.8132 28 32.3549ZM47.0938 32.8861C47.0312 32.7194 46.9219 32.584 46.7656 32.4799C46.6094 32.3757 46.4375 32.3236 46.25 32.3236H44.375C44.25 30.7819 43.8542 29.3444 43.1875 28.0111C42.5208 26.6569 41.6562 25.4851 40.5938 24.4955C39.5312 23.5059 38.3125 22.7299 36.9375 22.1674C35.5417 21.6049 34.0625 21.3236 32.5 21.3236C31.4583 21.3236 30.4479 21.4486 29.4688 21.6986C28.5104 21.9694 27.6042 22.3392 26.75 22.808C25.8958 23.2767 25.1042 23.8444 24.375 24.5111C23.6667 25.1778 23.0417 25.9174 22.5 26.7299L22.4688 26.7924C22.4271 26.8549 22.3958 26.9278 22.375 27.0111C22.3542 27.0944 22.3438 27.1778 22.3438 27.2611C22.3438 27.4278 22.3802 27.5788 22.4531 27.7142C22.526 27.8496 22.625 27.959 22.75 28.0424C22.8333 28.084 22.9167 28.1205 23 28.1517C23.0833 28.183 23.1667 28.1986 23.25 28.1986C23.4167 28.1986 23.5677 28.1621 23.7031 28.0892C23.8385 28.0163 23.9479 27.9174 24.0312 27.7924V27.7611C24.4896 27.0736 25.0208 26.4382 25.625 25.8549C26.2292 25.2924 26.8958 24.808 27.625 24.4017C28.3542 23.9955 29.125 23.6882 29.9375 23.4799C30.7708 23.2507 31.625 23.1361 32.5 23.1361C33.8125 23.1361 35.0521 23.3757 36.2188 23.8549C37.3854 24.334 38.4167 24.9851 39.3125 25.808C40.2083 26.6309 40.9375 27.5944 41.5 28.6986C42.0833 29.8028 42.4271 31.0007 42.5312 32.2924V32.3236H40.75C40.5625 32.3236 40.3906 32.3757 40.2344 32.4799C40.0781 32.584 39.9688 32.7194 39.9062 32.8861C39.8854 32.9278 39.8698 32.9799 39.8594 33.0424C39.849 33.1049 39.8438 33.1674 39.8438 33.2299C39.8438 33.3549 39.8646 33.4747 39.9062 33.5892C39.9479 33.7038 40.0104 33.8028 40.0938 33.8861L42.8438 36.6361C42.9271 36.7194 43.026 36.7872 43.1406 36.8392C43.2552 36.8913 43.375 36.9174 43.5 36.9174C43.625 36.9174 43.7448 36.8913 43.8594 36.8392C43.974 36.7872 44.0729 36.7194 44.1562 36.6361L46.9062 33.8861C46.9896 33.8028 47.0521 33.7038 47.0938 33.5892C47.1354 33.4747 47.1562 33.3549 47.1562 33.2299C47.1562 33.1674 47.151 33.1049 47.1406 33.0424C47.1302 32.9799 47.1146 32.9278 47.0938 32.8861ZM42.5 38.6986C42.4375 38.5944 42.3542 38.5111 42.25 38.4486C42.1458 38.3861 42.0312 38.3444 41.9062 38.3236V38.2924C41.8854 38.2924 41.8594 38.2924 41.8281 38.2924C41.7969 38.2924 41.7708 38.2924 41.75 38.2924C41.5833 38.2924 41.4323 38.3288 41.2969 38.4017C41.1615 38.4746 41.0521 38.5736 40.9688 38.6986C40.7812 38.9694 40.5885 39.2299 40.3906 39.4799C40.1927 39.7299 39.9896 39.959 39.7812 40.1674C39.4062 39.6257 38.9219 39.183 38.3281 38.8392C37.7344 38.4955 37.0833 38.3132 36.375 38.2924H28.625C27.9167 38.3132 27.2656 38.4955 26.6719 38.8392C26.0781 39.183 25.5938 39.6257 25.2188 40.1674C25.1562 40.1049 25.0938 40.0476 25.0312 39.9955C24.9688 39.9434 24.9062 39.8861 24.8438 39.8236C24.1979 39.0528 23.6667 38.1882 23.25 37.2299C22.8333 36.2715 22.5729 35.2611 22.4688 34.1986V34.1674H24.25C24.4375 34.1674 24.6094 34.1153 24.7656 34.0111C24.9219 33.9069 25.0312 33.7715 25.0938 33.6049C25.1146 33.5424 25.1302 33.4799 25.1406 33.4174C25.151 33.3549 25.1562 33.2924 25.1562 33.2299C25.1562 33.1049 25.1354 32.9903 25.0938 32.8861C25.0521 32.7819 24.9896 32.6778 24.9062 32.5736L22.1562 29.8236C22.0729 29.7403 21.974 29.6778 21.8594 29.6361C21.7448 29.5944 21.625 29.5736 21.5 29.5736C21.375 29.5736 21.2552 29.5944 21.1406 29.6361C21.026 29.6778 20.9271 29.7403 20.8438 29.8236L18.0938 32.5736C18.0104 32.6778 17.9479 32.7819 17.9062 32.8861C17.8646 32.9903 17.8438 33.1049 17.8438 33.2299C17.8438 33.3132 17.849 33.3809 17.8594 33.433C17.8698 33.4851 17.8854 33.5424 17.9062 33.6049C17.9688 33.7715 18.0781 33.9069 18.2344 34.0111C18.3906 34.1153 18.5625 34.1674 18.75 34.1674H20.625C20.75 35.709 21.1458 37.1465 21.8125 38.4799C22.4792 39.8132 23.3438 40.9746 24.4062 41.9642C25.4688 42.9538 26.6875 43.7403 28.0625 44.3236C29.4583 44.8861 30.9375 45.1674 32.5 45.1674C33.5417 45.1674 34.5521 45.0319 35.5312 44.7611C36.4896 44.5111 37.3958 44.1517 38.25 43.683C39.1042 43.2142 39.8958 42.6465 40.625 41.9799C41.3333 41.3132 41.9583 40.5736 42.5 39.7611L42.5312 39.6986C42.5729 39.6361 42.6042 39.5632 42.625 39.4799C42.6458 39.3965 42.6562 39.3028 42.6562 39.1986C42.6562 39.1153 42.6406 39.0267 42.6094 38.933C42.5781 38.8392 42.5417 38.7611 42.5 38.6986Z" fill="white"/>
</svg>
