<svg width="64" height="65" viewBox="0 0 64 65" fill="none" xmlns="http://www.w3.org/2000/svg">
<rect y="0.573608" width="64" height="64" rx="32" fill="#6E461A"/>
<path d="M30.0625 25.6361C29.9375 25.5111 29.7917 25.4121 29.625 25.3392C29.4583 25.2663 29.2812 25.2299 29.0938 25.2299H22.8125C21.9375 25.2507 21.1927 25.5684 20.5781 26.183C19.9635 26.7976 19.6562 27.5424 19.6562 28.4174C19.6562 28.4174 19.6562 28.4226 19.6562 28.433C19.6562 28.4434 19.6562 28.4486 19.6562 28.4486V43.3861C19.6562 43.3861 19.6562 43.3965 19.6562 43.4174C19.6562 44.2715 19.9635 45.0059 20.5781 45.6205C21.1927 46.2351 21.9375 46.5528 22.8125 46.5736H33.5938C34.4688 46.5528 35.2135 46.2351 35.8281 45.6205C36.4427 45.0059 36.75 44.2715 36.75 43.4174C36.75 43.3965 36.75 43.3861 36.75 43.3861V33.1049C36.75 32.9174 36.7135 32.7455 36.6406 32.5892C36.5677 32.433 36.4792 32.2924 36.375 32.1674L30.0625 25.6361ZM33.375 32.9174H29.375V28.7611L33.375 32.9174ZM43.9688 27.0424L37.6562 20.3236C37.5521 20.1986 37.4167 20.0996 37.25 20.0267C37.0833 19.9538 36.8958 19.9174 36.6875 19.9174H30.4062C29.8854 19.9174 29.4062 20.0319 28.9688 20.2611C28.5312 20.4903 28.1771 20.8028 27.9062 21.1986H27.875C27.8125 21.3236 27.7552 21.4486 27.7031 21.5736C27.651 21.6986 27.625 21.834 27.625 21.9799C27.625 22.3549 27.7552 22.6726 28.0156 22.933C28.276 23.1934 28.5938 23.3236 28.9688 23.3236C29.1979 23.3236 29.4062 23.2715 29.5938 23.1674C29.7812 23.0632 29.9375 22.9278 30.0625 22.7611C30.0833 22.7194 30.125 22.6778 30.1875 22.6361C30.25 22.5944 30.3229 22.5736 30.4062 22.5736H34.9375V28.4486C34.9375 28.8028 35.0677 29.1101 35.3281 29.3705C35.5885 29.6309 35.9062 29.7611 36.2812 29.7611H41.6562V38.5111C41.6562 38.5319 41.6562 38.5424 41.6562 38.5424C41.6562 38.5424 41.6562 38.5528 41.6562 38.5736C41.6562 38.6986 41.6146 38.8132 41.5312 38.9174C41.4479 39.0215 41.3333 39.084 41.1875 39.1049H40.0312C39.6771 39.1049 39.3698 39.2351 39.1094 39.4955C38.849 39.7559 38.7188 40.0736 38.7188 40.4486C38.7188 40.8028 38.849 41.1101 39.1094 41.3705C39.3698 41.6309 39.6771 41.7611 40.0312 41.7611H41.1875C42.0625 41.7611 42.8073 41.4486 43.4219 40.8236C44.0365 40.1986 44.3438 39.4486 44.3438 38.5736C44.3438 38.5736 44.3438 38.5684 44.3438 38.558C44.3438 38.5476 44.3438 38.5319 44.3438 38.5111V27.9486C44.3438 27.7819 44.3073 27.6205 44.2344 27.4642C44.1615 27.308 44.0729 27.1674 43.9688 27.0424ZM37 23.5111L41 27.7611H37V23.5111Z" fill="white"/>
</svg>
