<svg width="60" height="61" viewBox="0 0 60 61" fill="none" xmlns="http://www.w3.org/2000/svg">
<rect y="0.138916" width="60" height="60" rx="30" fill="#6E461A"/>
<path d="M39.6562 29.1389V23.7952C39.6562 23.066 39.3958 22.441 38.875 21.9202C38.3542 21.3993 37.7292 21.1389 37 21.1389H31.6562C31.6562 19.8472 31.2031 18.7483 30.2969 17.842C29.3906 16.9358 28.2917 16.4827 27 16.4827C25.7083 16.4827 24.6094 16.9358 23.7031 17.842C22.7969 18.7483 22.3438 19.8472 22.3438 21.1389H18.3438C17.5938 21.1389 16.9583 21.3993 16.4375 21.9202C15.9167 22.441 15.6562 23.066 15.6562 23.7952V30.4827C15.6562 30.8368 15.7865 31.1441 16.0469 31.4045C16.3073 31.665 16.625 31.7952 17 31.7952H18.3438C18.8854 31.7952 19.3542 31.9931 19.75 32.3889C20.1458 32.7847 20.3438 33.2535 20.3438 33.7952C20.3438 34.3577 20.1458 34.8316 19.75 35.217C19.3542 35.6025 18.8854 35.7952 18.3438 35.7952H17C16.625 35.7952 16.3073 35.9254 16.0469 36.1858C15.7865 36.4462 15.6562 36.7639 15.6562 37.1389V42.4827C15.6562 43.2118 15.9167 43.8368 16.4375 44.3577C16.9583 44.8785 17.5938 45.1389 18.3438 45.1389H27.6562C28.0312 45.1389 28.349 45.0087 28.6094 44.7483C28.8698 44.4879 29 44.1702 29 43.7952V42.4827C29 41.9202 29.1927 41.4462 29.5781 41.0608C29.9635 40.6754 30.4375 40.4827 31 40.4827C31.5625 40.4827 32.0365 40.6754 32.4219 41.0608C32.8073 41.4462 33 41.9202 33 42.4827V43.7952C33 44.1702 33.1302 44.4879 33.3906 44.7483C33.651 45.0087 33.9688 45.1389 34.3438 45.1389H37C37.7292 45.1389 38.3542 44.8785 38.875 44.3577C39.3958 43.8368 39.6562 43.2118 39.6562 42.4827V38.4827C40.9479 38.4827 42.0521 38.0243 42.9688 37.1077C43.8854 36.191 44.3438 35.0868 44.3438 33.7952C44.3438 32.5035 43.8854 31.4045 42.9688 30.4983C42.0521 29.592 40.9479 29.1389 39.6562 29.1389Z" fill="white"/>
</svg>
