<svg width="33" height="33" viewBox="0 0 33 33" fill="none" xmlns="http://www.w3.org/2000/svg">
<path d="M12 16.3549C12 16.3132 12 16.2663 12 16.2142C12 16.1622 12 16.1049 12 16.0424C12.125 14.834 12.625 13.8132 13.5 12.9799C14.375 12.1465 15.4271 11.709 16.6562 11.6674H16.6875C17.8958 11.709 18.9427 12.1361 19.8281 12.9486C20.7135 13.7611 21.2188 14.7611 21.3438 15.9486V15.9799V16.0111C21.3438 16.0528 21.349 16.1049 21.3594 16.1674C21.3698 16.2299 21.375 16.2924 21.375 16.3549C21.375 16.8132 21.2865 17.2455 21.1094 17.6517C20.9323 18.058 20.6979 18.4069 20.4062 18.6986C19.9688 19.0944 19.4688 19.4122 18.9062 19.6517C18.3438 19.8913 17.7396 20.0111 17.0938 20.0111C17.0729 20.0111 17.0469 20.0111 17.0156 20.0111C16.9844 20.0111 16.9583 20.0111 16.9375 20.0111C16.8958 20.0111 16.8542 20.0111 16.8125 20.0111C16.7708 20.0111 16.7292 20.0007 16.6875 19.9799C16.625 20.0007 16.5625 20.0111 16.5 20.0111C16.4375 20.0111 16.375 20.0111 16.3125 20.0111C15.6667 20.0111 15.0573 19.8965 14.4844 19.6674C13.9115 19.4382 13.3958 19.1153 12.9375 18.6986C12.6458 18.4069 12.4167 18.058 12.25 17.6517C12.0833 17.2455 12 16.8132 12 16.3549ZM31.0938 16.8861C31.0312 16.7194 30.9219 16.584 30.7656 16.4799C30.6094 16.3757 30.4375 16.3236 30.25 16.3236H28.375C28.25 14.7819 27.8542 13.3444 27.1875 12.0111C26.5208 10.6569 25.6562 9.48507 24.5938 8.49548C23.5312 7.5059 22.3125 6.72986 20.9375 6.16736C19.5417 5.60486 18.0625 5.32361 16.5 5.32361C15.4583 5.32361 14.4479 5.44861 13.4688 5.69861C12.5104 5.96944 11.6042 6.33923 10.75 6.80798C9.89583 7.27673 9.10417 7.84444 8.375 8.51111C7.66667 9.17777 7.04167 9.91736 6.5 10.7299L6.46875 10.7924C6.42708 10.8549 6.39583 10.9278 6.375 11.0111C6.35417 11.0944 6.34375 11.1778 6.34375 11.2611C6.34375 11.4278 6.38021 11.5788 6.45312 11.7142C6.52604 11.8496 6.625 11.959 6.75 12.0424C6.83333 12.084 6.91667 12.1205 7 12.1517C7.08333 12.183 7.16667 12.1986 7.25 12.1986C7.41667 12.1986 7.56771 12.1621 7.70312 12.0892C7.83854 12.0163 7.94792 11.9174 8.03125 11.7924V11.7611C8.48958 11.0736 9.02083 10.4382 9.625 9.85486C10.2292 9.29236 10.8958 8.80798 11.625 8.40173C12.3542 7.99548 13.125 7.68819 13.9375 7.47986C14.7708 7.25069 15.625 7.13611 16.5 7.13611C17.8125 7.13611 19.0521 7.37569 20.2188 7.85486C21.3854 8.33402 22.4167 8.98507 23.3125 9.80798C24.2083 10.6309 24.9375 11.5944 25.5 12.6986C26.0833 13.8028 26.4271 15.0007 26.5312 16.2924V16.3236H24.75C24.5625 16.3236 24.3906 16.3757 24.2344 16.4799C24.0781 16.584 23.9688 16.7194 23.9062 16.8861C23.8854 16.9278 23.8698 16.9799 23.8594 17.0424C23.849 17.1049 23.8438 17.1674 23.8438 17.2299C23.8438 17.3549 23.8646 17.4747 23.9062 17.5892C23.9479 17.7038 24.0104 17.8028 24.0938 17.8861L26.8438 20.6361C26.9271 20.7194 27.026 20.7872 27.1406 20.8392C27.2552 20.8913 27.375 20.9174 27.5 20.9174C27.625 20.9174 27.7448 20.8913 27.8594 20.8392C27.974 20.7872 28.0729 20.7194 28.1562 20.6361L30.9062 17.8861C30.9896 17.8028 31.0521 17.7038 31.0938 17.5892C31.1354 17.4747 31.1562 17.3549 31.1562 17.2299C31.1562 17.1674 31.151 17.1049 31.1406 17.0424C31.1302 16.9799 31.1146 16.9278 31.0938 16.8861ZM26.5 22.6986C26.4375 22.5944 26.3542 22.5111 26.25 22.4486C26.1458 22.3861 26.0312 22.3444 25.9062 22.3236V22.2924C25.8854 22.2924 25.8594 22.2924 25.8281 22.2924C25.7969 22.2924 25.7708 22.2924 25.75 22.2924C25.5833 22.2924 25.4323 22.3288 25.2969 22.4017C25.1615 22.4746 25.0521 22.5736 24.9688 22.6986C24.7812 22.9694 24.5885 23.2299 24.3906 23.4799C24.1927 23.7299 23.9896 23.959 23.7812 24.1674C23.4062 23.6257 22.9219 23.183 22.3281 22.8392C21.7344 22.4955 21.0833 22.3132 20.375 22.2924H12.625C11.9167 22.3132 11.2656 22.4955 10.6719 22.8392C10.0781 23.183 9.59375 23.6257 9.21875 24.1674C9.15625 24.1049 9.09375 24.0476 9.03125 23.9955C8.96875 23.9434 8.90625 23.8861 8.84375 23.8236C8.19792 23.0528 7.66667 22.1882 7.25 21.2299C6.83333 20.2715 6.57292 19.2611 6.46875 18.1986V18.1674H8.25C8.4375 18.1674 8.60938 18.1153 8.76562 18.0111C8.92188 17.9069 9.03125 17.7715 9.09375 17.6049C9.11458 17.5424 9.13021 17.4799 9.14062 17.4174C9.15104 17.3549 9.15625 17.2924 9.15625 17.2299C9.15625 17.1049 9.13542 16.9903 9.09375 16.8861C9.05208 16.7819 8.98958 16.6778 8.90625 16.5736L6.15625 13.8236C6.07292 13.7403 5.97396 13.6778 5.85938 13.6361C5.74479 13.5944 5.625 13.5736 5.5 13.5736C5.375 13.5736 5.25521 13.5944 5.14062 13.6361C5.02604 13.6778 4.92708 13.7403 4.84375 13.8236L2.09375 16.5736C2.01042 16.6778 1.94792 16.7819 1.90625 16.8861C1.86458 16.9903 1.84375 17.1049 1.84375 17.2299C1.84375 17.3132 1.84896 17.3809 1.85938 17.433C1.86979 17.4851 1.88542 17.5424 1.90625 17.6049C1.96875 17.7715 2.07812 17.9069 2.23438 18.0111C2.39062 18.1153 2.5625 18.1674 2.75 18.1674H4.625C4.75 19.709 5.14583 21.1465 5.8125 22.4799C6.47917 23.8132 7.34375 24.9746 8.40625 25.9642C9.46875 26.9538 10.6875 27.7403 12.0625 28.3236C13.4583 28.8861 14.9375 29.1674 16.5 29.1674C17.5417 29.1674 18.5521 29.0319 19.5312 28.7611C20.4896 28.5111 21.3958 28.1517 22.25 27.683C23.1042 27.2142 23.8958 26.6465 24.625 25.9799C25.3333 25.3132 25.9583 24.5736 26.5 23.7611L26.5312 23.6986C26.5729 23.6361 26.6042 23.5632 26.625 23.4799C26.6458 23.3965 26.6562 23.3028 26.6562 23.1986C26.6562 23.1153 26.6406 23.0267 26.6094 22.933C26.5781 22.8392 26.5417 22.7611 26.5 22.6986Z" fill="white"/>
</svg>
