<svg width="24" height="23" viewBox="0 0 24 23" fill="none" xmlns="http://www.w3.org/2000/svg">
<path d="M4.992 0.0706911H6.672V22.0547H4.992V0.0706911ZM1.128 8.06269H10.608V9.74269H1.128V8.06269ZM4.752 8.95069L5.832 9.40669C5.624 10.2387 5.36 11.1027 5.04 11.9987C4.736 12.8787 4.4 13.7507 4.032 14.6147C3.664 15.4787 3.28 16.2947 2.88 17.0627C2.48 17.8147 2.08 18.4627 1.68 19.0067C1.616 18.8307 1.528 18.6387 1.416 18.4307C1.32 18.2227 1.208 18.0147 1.08 17.8067C0.968 17.5827 0.856 17.3987 0.744 17.2547C1.256 16.6307 1.768 15.8467 2.28 14.9027C2.808 13.9587 3.288 12.9667 3.72 11.9267C4.152 10.8707 4.496 9.87869 4.752 8.95069ZM6.648 10.0547C6.776 10.1987 6.96 10.4307 7.2 10.7507C7.456 11.0707 7.736 11.4307 8.04 11.8307C8.36 12.2307 8.672 12.6307 8.976 13.0307C9.28 13.4307 9.552 13.7987 9.792 14.1347C10.032 14.4547 10.2 14.6947 10.296 14.8547L9.096 16.2707C8.952 15.9507 8.736 15.5427 8.448 15.0467C8.16 14.5347 7.84 14.0067 7.488 13.4627C7.152 12.9027 6.824 12.3827 6.504 11.9027C6.2 11.4227 5.952 11.0547 5.76 10.7987L6.648 10.0547ZM1.296 1.87069L2.616 1.51069C2.856 2.07069 3.064 2.67069 3.24 3.31069C3.432 3.95069 3.6 4.57469 3.744 5.18269C3.888 5.79069 3.984 6.34269 4.032 6.83869L2.592 7.19869C2.576 6.71869 2.496 6.17469 2.352 5.56669C2.224 4.94269 2.064 4.31069 1.872 3.67069C1.696 3.01469 1.504 2.41469 1.296 1.87069ZM9.048 1.43869L10.632 1.84669C10.44 2.43869 10.224 3.07069 9.984 3.74269C9.76 4.39869 9.528 5.03869 9.288 5.66269C9.064 6.27069 8.848 6.80669 8.64 7.27069L7.464 6.88669C7.656 6.40669 7.848 5.84669 8.04 5.20669C8.248 4.55069 8.44 3.89469 8.616 3.23869C8.808 2.56669 8.952 1.96669 9.048 1.43869ZM18.36 -0.00130939H20.088V22.0547H18.36V-0.00130939ZM10.56 15.2867L22.896 13.0547L23.184 14.7107L10.872 16.9427L10.56 15.2867ZM12.384 2.95069L13.296 1.70269C13.76 1.97469 14.232 2.28669 14.712 2.63869C15.208 2.97469 15.672 3.31869 16.104 3.67069C16.536 4.02269 16.88 4.35069 17.136 4.65469L16.176 6.02269C15.936 5.71869 15.6 5.38269 15.168 5.01469C14.752 4.64669 14.296 4.27869 13.8 3.91069C13.32 3.54269 12.848 3.22269 12.384 2.95069ZM11.16 8.99869L12 7.72669C12.48 7.96669 12.976 8.24669 13.488 8.56669C14 8.87069 14.488 9.19069 14.952 9.52669C15.416 9.84669 15.784 10.1507 16.056 10.4387L15.168 11.8787C14.88 11.5907 14.512 11.2787 14.064 10.9427C13.616 10.5907 13.136 10.2467 12.624 9.91069C12.128 9.55869 11.64 9.25469 11.16 8.99869Z" fill="white"/>
</svg>
