<svg width="32" height="33" viewBox="0 0 32 33" fill="none" xmlns="http://www.w3.org/2000/svg">
<path d="M14.0625 9.63611C13.9375 9.51111 13.7917 9.41215 13.625 9.33923C13.4583 9.26632 13.2812 9.22986 13.0938 9.22986H6.8125C5.9375 9.25069 5.19271 9.5684 4.57812 10.183C3.96354 10.7976 3.65625 11.5424 3.65625 12.4174C3.65625 12.4174 3.65625 12.4226 3.65625 12.433C3.65625 12.4434 3.65625 12.4486 3.65625 12.4486V27.3861C3.65625 27.3861 3.65625 27.3965 3.65625 27.4174C3.65625 28.2715 3.96354 29.0059 4.57812 29.6205C5.19271 30.2351 5.9375 30.5528 6.8125 30.5736H17.5938C18.4688 30.5528 19.2135 30.2351 19.8281 29.6205C20.4427 29.0059 20.75 28.2715 20.75 27.4174C20.75 27.3965 20.75 27.3861 20.75 27.3861V17.1049C20.75 16.9174 20.7135 16.7455 20.6406 16.5892C20.5677 16.433 20.4792 16.2924 20.375 16.1674L14.0625 9.63611ZM17.375 16.9174H13.375V12.7611L17.375 16.9174ZM27.9688 11.0424L21.6562 4.32361C21.5521 4.19861 21.4167 4.09965 21.25 4.02673C21.0833 3.95382 20.8958 3.91736 20.6875 3.91736H14.4062C13.8854 3.91736 13.4062 4.03194 12.9688 4.26111C12.5312 4.49027 12.1771 4.80277 11.9062 5.19861H11.875C11.8125 5.32361 11.7552 5.44861 11.7031 5.57361C11.651 5.69861 11.625 5.83402 11.625 5.97986C11.625 6.35486 11.7552 6.67257 12.0156 6.93298C12.276 7.1934 12.5938 7.32361 12.9688 7.32361C13.1979 7.32361 13.4062 7.27152 13.5938 7.16736C13.7812 7.06319 13.9375 6.92777 14.0625 6.76111C14.0833 6.71944 14.125 6.67777 14.1875 6.63611C14.25 6.59444 14.3229 6.57361 14.4062 6.57361H18.9375V12.4486C18.9375 12.8028 19.0677 13.1101 19.3281 13.3705C19.5885 13.6309 19.9062 13.7611 20.2812 13.7611H25.6562V22.5111C25.6562 22.5319 25.6562 22.5424 25.6562 22.5424C25.6562 22.5424 25.6562 22.5528 25.6562 22.5736C25.6562 22.6986 25.6146 22.8132 25.5312 22.9174C25.4479 23.0215 25.3333 23.084 25.1875 23.1049H24.0312C23.6771 23.1049 23.3698 23.2351 23.1094 23.4955C22.849 23.7559 22.7188 24.0736 22.7188 24.4486C22.7188 24.8028 22.849 25.1101 23.1094 25.3705C23.3698 25.6309 23.6771 25.7611 24.0312 25.7611H25.1875C26.0625 25.7611 26.8073 25.4486 27.4219 24.8236C28.0365 24.1986 28.3438 23.4486 28.3438 22.5736C28.3438 22.5736 28.3438 22.5684 28.3438 22.558C28.3438 22.5476 28.3438 22.5319 28.3438 22.5111V11.9486C28.3438 11.7819 28.3073 11.6205 28.2344 11.4642C28.1615 11.308 28.0729 11.1674 27.9688 11.0424ZM21 7.51111L25 11.7611H21V7.51111Z" fill="white"/>
</svg>
