<svg width="32" height="33" viewBox="0 0 32 33" fill="none" xmlns="http://www.w3.org/2000/svg">
<path d="M12.4062 15.7611C12.5729 15.6569 12.7031 15.5267 12.7969 15.3705C12.8906 15.2142 12.9375 15.0424 12.9375 14.8549V5.63611C12.9375 5.34444 12.8333 5.09965 12.625 4.90173C12.4167 4.70382 12.1771 4.60486 11.9062 4.60486C11.8438 4.60486 11.7812 4.61007 11.7188 4.62048C11.6562 4.6309 11.6042 4.64652 11.5625 4.66736C10.25 5.14652 9.05208 5.79236 7.96875 6.60486C6.88542 7.43819 5.95312 8.40173 5.17188 9.49548C4.39062 10.5892 3.78125 11.7924 3.34375 13.1049C2.90625 14.4174 2.6875 15.7924 2.6875 17.2299C2.6875 17.6465 2.70833 18.0684 2.75 18.4955C2.79167 18.9226 2.84375 19.334 2.90625 19.7299V19.6674C2.92708 19.834 2.98958 19.9799 3.09375 20.1049C3.19792 20.2299 3.32292 20.3236 3.46875 20.3861C3.53125 20.4278 3.59896 20.459 3.67188 20.4799C3.74479 20.5007 3.82292 20.5111 3.90625 20.5111C4.01042 20.5111 4.10417 20.4955 4.1875 20.4642C4.27083 20.433 4.35417 20.3965 4.4375 20.3549L12.4062 15.7611ZM6.40625 11.3549C6.94792 10.459 7.59375 9.66215 8.34375 8.96423C9.09375 8.26632 9.91667 7.68819 10.8125 7.22986L10.875 7.19861V14.2611L4.75 17.8236C4.75 17.7194 4.74479 17.6153 4.73438 17.5111C4.72396 17.4069 4.71875 17.3132 4.71875 17.2299C4.71875 16.1465 4.86979 15.0997 5.17188 14.0892C5.47396 13.0788 5.89583 12.1465 6.4375 11.2924L6.40625 11.3549ZM29.3125 17.2299C29.3125 17.2299 29.3125 17.2351 29.3125 17.2455C29.3125 17.2559 29.3125 17.2611 29.3125 17.2611C29.3125 19.0944 28.9688 20.8236 28.2812 22.4486C27.5729 24.0528 26.6198 25.459 25.4219 26.6674C24.224 27.8757 22.8125 28.834 21.1875 29.5424C19.5625 30.2299 17.8333 30.5736 16 30.5736C14.7708 30.5736 13.5938 30.4174 12.4688 30.1049C11.3438 29.7924 10.2917 29.3497 9.3125 28.7767C8.33333 28.2038 7.4375 27.5111 6.625 26.6986C5.8125 25.9069 5.11458 25.0215 4.53125 24.0424L4.5 23.9799L4.46875 23.9174V23.8861C4.42708 23.8028 4.39062 23.7194 4.35938 23.6361C4.32812 23.5528 4.3125 23.4694 4.3125 23.3861C4.3125 23.1986 4.36458 23.0267 4.46875 22.8705C4.57292 22.7142 4.69792 22.584 4.84375 22.4799L14.9688 16.6361V4.91736C14.9688 4.64652 15.0677 4.41215 15.2656 4.21423C15.4635 4.01632 15.7083 3.91736 16 3.91736C17.2083 3.91736 18.3854 4.07361 19.5312 4.38611C20.6562 4.69861 21.7083 5.14132 22.6875 5.71423C23.6667 6.28715 24.5625 6.96944 25.375 7.76111C26.1875 8.57361 26.875 9.46944 27.4375 10.4486L27.5 10.5111L27.5312 10.5736C27.5312 10.5736 27.5365 10.5788 27.5469 10.5892C27.5573 10.5996 27.5625 10.6049 27.5625 10.6049C28.125 11.5632 28.5573 12.5996 28.8594 13.7142C29.1615 14.8288 29.3125 15.9903 29.3125 17.1986C29.3125 17.1986 29.3125 17.2038 29.3125 17.2142C29.3125 17.2247 29.3125 17.2299 29.3125 17.2299Z" fill="white"/>
</svg>
