<svg width="64" height="65" viewBox="0 0 64 65" fill="none" xmlns="http://www.w3.org/2000/svg">
<rect x="0.5" y="1.41382" width="63" height="63" rx="31.5" stroke="#E5E7EB"/>
<path d="M17.3438 32.2576H46.6562V41.5701C46.6562 42.6742 46.2656 43.6169 45.4844 44.3982C44.7031 45.1794 43.7604 45.5701 42.6562 45.5701H21.3438C20.2396 45.5701 19.2969 45.1794 18.5156 44.3982C17.7344 43.6169 17.3438 42.6742 17.3438 41.5701V32.2576ZM46.6562 25.5701V29.5701H17.3438V25.5701C17.3438 24.4659 17.7344 23.5232 18.5156 22.7419C19.2969 21.9607 20.2396 21.5701 21.3438 21.5701H42.6562C43.7604 21.5701 44.7031 21.9607 45.4844 22.7419C46.2656 23.5232 46.6562 24.4659 46.6562 25.5701ZM24 24.2576H21.3438V26.9138H24V24.2576ZM29.3438 24.2576H26.6562V26.9138H29.3438V24.2576ZM42.6562 24.2576H32V26.9138H42.6562V24.2576Z" fill="#0A1425"/>
</svg>
