<svg width="64" height="65" viewBox="0 0 64 65" fill="none" xmlns="http://www.w3.org/2000/svg">
<rect x="0.5" y="1.41382" width="63" height="63" rx="31.5" stroke="#E5E7EB"/>
<path d="M34.4688 33.5701L21.125 46.9138C20.7708 46.7472 20.4896 46.5024 20.2812 46.1794C20.0729 45.8565 19.9688 45.4972 19.9688 45.1013C19.9688 45.1013 19.9688 45.0961 19.9688 45.0857C19.9688 45.0753 19.9688 45.0701 19.9688 45.0701V22.1013C19.9688 22.0805 19.9688 22.0701 19.9688 22.0701C19.9688 21.6742 20.0729 21.3149 20.2812 20.9919C20.4896 20.669 20.7604 20.4242 21.0938 20.2576H21.125L34.4688 33.5701ZM24.125 20.9138L38.75 29.3201L35.5938 32.4451L24.125 20.9138ZM35.5938 34.7263L38.75 37.8513L24.125 46.2263L35.5938 34.7263ZM43.3125 35.1638L40.1875 36.9451L36.7812 33.5701L40.1875 30.2263L43.25 32.0076C43.5 32.1951 43.6927 32.4294 43.8281 32.7107C43.9635 32.9919 44.0312 33.2888 44.0312 33.6013C44.0312 33.9138 43.9688 34.2055 43.8438 34.4763C43.7188 34.7472 43.5417 34.9763 43.3125 35.1638Z" fill="#0A1425"/>
</svg>
