<svg width="123" height="11" viewBox="0 0 123 11" fill="none" xmlns="http://www.w3.org/2000/svg">
<path opacity="0.4" d="M1.55469 6.97468L4.54372 3.84885C7.83583 0.406058 13.4698 0.899066 16.1139 4.86132L16.6326 5.63856C19.3321 9.68394 25.2775 9.68394 27.9771 5.63855C30.6767 1.59316 36.622 1.59316 39.3216 5.63855C42.0212 9.68394 47.9666 9.68394 50.6662 5.63855C53.3657 1.59316 59.3111 1.59316 62.0107 5.63855C64.7103 9.68394 70.6556 9.68394 73.3552 5.63855C76.0548 1.59316 82.0002 1.59316 84.6998 5.63855C87.3994 9.68394 93.3447 9.68394 96.0443 5.63855C98.7439 1.59316 104.689 1.59316 107.389 5.63855C110.089 9.68394 116.034 9.68394 118.734 5.63855L120.624 2.80522" stroke="#6E461A"/>
</svg>
